<?xml version="1.0"?>
<svg xmlns="http://www.w3.org/2000/svg" viewBox="0 0 64 64">
	<path d="M 56.595703 15.044922 C 53.846297 15.003813 51.121438 15.703703 48.710938 17.095703 L 38.462891 23.013672 L 14.867188 21.755859 C 13.746187 21.695859 12.623172 22.014344 11.701172 22.652344 L 9.28125 24.324219 C 8.66025 24.754219 8.3327812 25.488281 8.4257812 26.238281 C 8.5187812 26.988281 9.0166094 27.618766 9.7246094 27.884766 L 22.039062 32.494141 L 16.445312 35.726562 L 4.2558594 34.439453 C 3.1758594 34.325453 2.111875 34.55075 1.171875 35.09375 L 1.0117188 35.1875 C 0.42071875 35.5285 0.04490625 36.137359 0.00390625 36.818359 C -0.03709375 37.499359 0.26454688 38.150594 0.81054688 38.558594 L 9.9453125 45.392578 C 11.516312 46.567578 13.572312 46.918078 15.445312 46.330078 L 30.935547 41.453125 C 30.982547 41.438125 31.028266 41.420437 31.072266 41.398438 L 28.070312 59.394531 C 27.940313 60.174531 28.262109 60.939625 28.912109 61.390625 C 29.261109 61.632625 29.662453 61.753906 30.064453 61.753906 C 30.411453 61.753906 30.761125 61.663469 31.078125 61.480469 L 34.345703 59.59375 C 35.205703 59.09775 35.897703 58.365469 36.345703 57.480469 L 49.998047 30.476562 L 56.552734 26.693359 C 59.204734 25.162359 61.4795 23.142406 63.3125 20.691406 L 63.390625 20.585938 C 64.021625 19.738938 64.173875 18.649016 63.796875 17.666016 C 63.419875 16.683016 62.575969 15.973531 61.542969 15.769531 L 59.341797 15.335938 C 58.430797 15.155687 57.512172 15.058625 56.595703 15.044922 z M 56.566406 17.042969 C 57.363312 17.054828 58.162828 17.140125 58.955078 17.296875 L 61.154297 17.730469 C 61.514297 17.801469 61.797688 18.040813 61.929688 18.382812 C 62.060688 18.726813 62.008062 19.090766 61.789062 19.384766 L 61.710938 19.488281 C 60.039938 21.722281 57.968734 23.563031 55.552734 24.957031 L 52.449219 26.748047 L 43.595703 31.75 C 43.114703 32.021 42.945797 32.631328 43.216797 33.111328 C 43.400797 33.437328 43.739844 33.619141 44.089844 33.619141 C 44.256844 33.619141 44.424078 33.577234 44.580078 33.490234 L 46.890625 32.185547 L 34.558594 56.574219 C 34.287594 57.112219 33.867703 57.556422 33.345703 57.857422 L 30.044922 59.720703 L 33.394531 39.638672 C 33.457531 39.256672 33.296516 38.872344 32.978516 38.652344 C 32.807516 38.533344 32.608203 38.474609 32.408203 38.474609 C 32.236203 38.474609 32.063203 38.517422 31.908203 38.607422 L 30.230469 39.576172 L 14.84375 44.419922 C 13.58375 44.816922 12.201531 44.580062 11.144531 43.789062 L 2.0136719 36.916016 L 2.1738281 36.822266 C 2.7428281 36.494266 3.3889219 36.355781 4.0449219 36.425781 L 16.556641 37.746094 C 16.764641 37.768094 16.979109 37.725141 17.162109 37.619141 L 24.933594 33.132812 C 24.937594 33.129812 24.941312 33.128 24.945312 33.125 L 49.710938 18.828125 C 51.807187 17.617625 54.175687 17.007391 56.566406 17.042969 z M 50.765625 20.507812 C 50.636766 20.523906 50.509875 20.565516 50.390625 20.634766 C 49.911625 20.910766 49.747438 21.522 50.023438 22 L 51.023438 23.732422 C 51.209437 24.053422 51.544625 24.232422 51.890625 24.232422 C 52.059625 24.232422 52.233625 24.188656 52.390625 24.097656 C 52.869625 23.821656 53.031859 23.210422 52.755859 22.732422 L 51.755859 21 C 51.548859 20.64075 51.152203 20.459531 50.765625 20.507812 z M 46.435547 23.007812 C 46.306766 23.023906 46.179797 23.065516 46.060547 23.134766 C 45.581547 23.410766 45.417359 24.022 45.693359 24.5 L 46.693359 26.232422 C 46.879359 26.553422 47.214547 26.732422 47.560547 26.732422 C 47.729547 26.732422 47.903547 26.688656 48.060547 26.597656 C 48.539547 26.321656 48.701781 25.710422 48.425781 25.232422 L 47.425781 23.5 C 47.218031 23.14075 46.821891 22.959531 46.435547 23.007812 z M 14.761719 23.753906 L 35.285156 24.847656 L 24.283203 31.199219 L 10.419922 25.96875 L 12.839844 24.296875 C 13.399844 23.909875 14.076719 23.719906 14.761719 23.753906 z M 42.105469 25.507812 C 41.976734 25.523906 41.849469 25.565516 41.730469 25.634766 C 41.251469 25.910766 41.087281 26.522 41.363281 27 L 42.363281 28.732422 C 42.549281 29.053422 42.884469 29.232422 43.230469 29.232422 C 43.399469 29.232422 43.573469 29.188656 43.730469 29.097656 C 44.209469 28.821656 44.371703 28.210422 44.095703 27.732422 L 43.095703 26 C 42.887953 25.64075 42.491672 25.459531 42.105469 25.507812 z M 37.775391 28.007812 C 37.646484 28.023906 37.519891 28.065516 37.400391 28.134766 C 36.921391 28.410766 36.757203 29.022 37.033203 29.5 L 38.033203 31.232422 C 38.219203 31.553422 38.554391 31.732422 38.900391 31.732422 C 39.069391 31.732422 39.243391 31.688656 39.400391 31.597656 C 39.879391 31.321656 40.041625 30.710422 39.765625 30.232422 L 38.765625 28.5 C 38.558625 28.14075 38.162109 27.959531 37.775391 28.007812 z M 33.445312 30.507812 C 33.316531 30.523906 33.189563 30.565516 33.070312 30.634766 C 32.591313 30.910766 32.427125 31.522 32.703125 32 L 33.703125 33.732422 C 33.889125 34.053422 34.224313 34.232422 34.570312 34.232422 C 34.739312 34.232422 34.913312 34.188656 35.070312 34.097656 C 35.549312 33.821656 35.711547 33.210422 35.435547 32.732422 L 34.435547 31 C 34.227797 30.64075 33.831656 30.459531 33.445312 30.507812 z M 29.115234 33.007812 C 28.986453 33.023906 28.857531 33.065516 28.738281 33.134766 C 28.259281 33.410766 28.097047 34.022 28.373047 34.5 L 29.373047 36.232422 C 29.559047 36.553422 29.894234 36.732422 30.240234 36.732422 C 30.409234 36.732422 30.581281 36.688656 30.738281 36.597656 C 31.217281 36.321656 31.381469 35.710422 31.105469 35.232422 L 30.105469 33.5 C 29.897719 33.14075 29.501578 32.959531 29.115234 33.007812 z M 24.785156 35.507812 C 24.656375 35.523906 24.527453 35.565516 24.408203 35.634766 C 23.929203 35.910766 23.766969 36.522 24.042969 37 L 25.042969 38.732422 C 25.228969 39.053422 25.564156 39.232422 25.910156 39.232422 C 26.079156 39.232422 26.251203 39.188656 26.408203 39.097656 C 26.887203 38.821656 27.051391 38.210422 26.775391 37.732422 L 25.775391 36 C 25.567641 35.64075 25.1715 35.459531 24.785156 35.507812 z"/>
</svg>
